<?xml version="1.0" encoding="UTF-8" standalone="no"?>
<!-- Created with Inkscape (http://www.inkscape.org/) -->

<svg
   xmlns:dc="http://purl.org/dc/elements/1.1/"
   xmlns:cc="http://creativecommons.org/ns#"
   xmlns:rdf="http://www.w3.org/1999/02/22-rdf-syntax-ns#"
   xmlns:svg="http://www.w3.org/2000/svg"
   xmlns="http://www.w3.org/2000/svg"
   xmlns:sodipodi="http://sodipodi.sourceforge.net/DTD/sodipodi-0.dtd"
   xmlns:inkscape="http://www.inkscape.org/namespaces/inkscape"
   width="80"
   height="80"
   viewBox="0 0 21.166666 21.166667"
   version="1.1"
   id="svg8"
   inkscape:version="0.92.5 (2060ec1f9f, 2020-04-08)"
   sodipodi:docname="icon.svg"
   inkscape:export-filename="/home/antoniofregoso/Desarrollo/Odoo/13/marketing/business_model/static/description/icon.png"
   inkscape:export-xdpi="94.567993"
   inkscape:export-ydpi="94.567993">
  <defs
     id="defs2" />
  <sodipodi:namedview
     id="base"
     pagecolor="#ffffff"
     bordercolor="#666666"
     borderopacity="1.0"
     inkscape:pageopacity="0.0"
     inkscape:pageshadow="2"
     inkscape:zoom="4.1125"
     inkscape:cx="40"
     inkscape:cy="20.547112"
     inkscape:document-units="mm"
     inkscape:current-layer="layer1"
     showgrid="false"
     units="px"
     inkscape:window-width="1600"
     inkscape:window-height="836"
     inkscape:window-x="0"
     inkscape:window-y="27"
     inkscape:window-maximized="1" />
  <metadata
     id="metadata5">
    <rdf:RDF>
      <cc:Work
         rdf:about="">
        <dc:format>image/svg+xml</dc:format>
        <dc:type
           rdf:resource="http://purl.org/dc/dcmitype/StillImage" />
        <dc:title></dc:title>
      </cc:Work>
    </rdf:RDF>
  </metadata>
  <g
     inkscape:label="Capa 1"
     inkscape:groupmode="layer"
     id="layer1"
     transform="translate(0,-275.83332)">
    <rect
       style="opacity:1;fill:#957324;fill-opacity:1;stroke:none;stroke-width:0.48100001;stroke-miterlimit:4;stroke-dasharray:none;stroke-opacity:1"
       id="rect812"
       width="21.326054"
       height="21.262299"
       x="-0.03187751"
       y="275.80145" />
    <path
       style="fill:#1a1a1a;fill-opacity:0.28852461;stroke:none;stroke-width:0.26458332px;stroke-linecap:butt;stroke-linejoin:miter;stroke-opacity:1"
       d="m -0.06433637,287.63904 5.86292577,-7.55729 c 1.7716314,2.76666 3.9288986,5.37426 7.1330216,2.92508 l 0.484475,0.46863 3.311371,5.1608 0.579027,-1.51191 1.76925,0.22518 -3.152482,9.74696 -15.95512951,-0.0327 z"
       id="path955"
       inkscape:connector-curvature="0"
       sodipodi:nodetypes="cccccccccc" />
    <path
       style="fill:#ffffff;stroke-width:1"
       d="m 10.887437,294.59228 c -0.328965,-0.36645 -0.456513,-0.43497 -0.80963,-0.43497 -0.3249252,0 -0.4888387,0.0727 -0.7291566,0.32358 -0.3702929,0.3865 -0.5125109,0.39642 -1.0785922,0.0753 -0.422315,-0.23962 -0.4307383,-0.25612 -0.3984071,-0.78021 0.028923,-0.46882 -0.00722,-0.57903 -0.2905325,-0.88596 -0.2744961,-0.29739 -0.3984919,-0.35054 -0.8176785,-0.35054 -0.4393342,0 -0.5068279,-0.0329 -0.6087726,-0.29662 -0.2761949,-0.71451 -0.2490112,-0.93744 0.1515626,-1.24297 0.3008736,-0.22949 0.3850499,-0.37621 0.4187831,-0.72993 0.03602,-0.37772 -0.010411,-0.50421 -0.3161908,-0.86145 l -0.3584111,-0.41872 0.2813708,-0.55526 0.2813712,-0.55526 0.4766833,0.0715 c 0.411208,0.0617 0.5279719,0.0323 0.8500836,-0.21331 0.3276591,-0.24992 0.3773569,-0.35191 0.4056988,-0.83257 l 0.032298,-0.54775 0.5834885,-0.19781 0.5834886,-0.19782 0.3686841,0.43072 c 0.4884938,0.57069 1.0135918,0.60076 1.5938968,0.0912 l 0.386656,-0.33947 0.542411,0.25404 0.542409,0.25406 -0.03547,0.56356 c -0.03154,0.50102 -3.23e-4,0.60028 0.281318,0.89438 0.264241,0.27593 0.399638,0.33082 0.816211,0.33082 h 0.499419 l 0.189952,0.60259 0.189953,0.6026 -0.439904,0.37654 c -0.368902,0.31577 -0.439902,0.44156 -0.439902,0.77939 0,0.30682 0.07714,0.47676 0.323578,0.71286 0.387737,0.37148 0.393157,0.44425 0.08096,1.08684 l -0.242623,0.49939 -0.526856,-0.0506 c -0.457743,-0.044 -0.569222,-0.0128 -0.849827,0.23795 -0.256391,0.22908 -0.333797,0.40124 -0.375484,0.83509 -0.05086,0.52938 -0.066,0.55055 -0.482736,0.6754 -0.236623,0.0709 -0.488586,0.1513 -0.55992,0.17867 -0.07133,0.0274 -0.305413,-0.14597 -0.520176,-0.3852 z m 0.277308,-2.77674 c 0.412289,-0.20786 0.76327,-0.99956 0.66808,-1.50697 -0.03871,-0.20634 -0.233597,-0.55326 -0.433081,-0.77094 -0.340615,-0.37168 -0.40218,-0.39577 -1.011061,-0.39577 -0.5714188,0 -0.6878867,0.0379 -0.9814278,0.3191 -0.4909717,0.47038 -0.6222221,1.00884 -0.3925156,1.61031 0.2126322,0.55677 0.3440917,0.68543 0.8991495,0.87998 0.4297329,0.15063 0.7523549,0.11562 1.2508559,-0.13571 z m 4.601111,-3.32194 c -0.05909,-0.15542 -0.107443,-0.32783 -0.107443,-0.38311 0,-0.0553 -0.157744,-0.16661 -0.350542,-0.24735 -0.295425,-0.12374 -0.396339,-0.12379 -0.641799,-3.3e-4 -0.425965,0.21427 -0.575115,0.18366 -0.881975,-0.18102 -0.267791,-0.31825 -0.270658,-0.33791 -0.101161,-0.69336 0.24054,-0.50441 0.05151,-0.97034 -0.462501,-1.13997 -0.349529,-0.11534 -0.366364,-0.14491 -0.366364,-0.64347 0,-0.49855 0.01683,-0.52812 0.366364,-0.64346 0.514012,-0.16965 0.703041,-0.63557 0.462501,-1.13998 -0.169499,-0.35545 -0.166632,-0.3751 0.101161,-0.69335 0.301106,-0.35786 0.496487,-0.39604 0.895415,-0.17504 0.386467,0.2141 0.879058,-0.0194 1.038215,-0.49207 0.115588,-0.34331 0.147926,-0.36152 0.641771,-0.36152 0.493845,0 0.526183,0.0182 0.641771,0.36152 0.159157,0.4727 0.651748,0.70617 1.038215,0.49207 0.398929,-0.221 0.594309,-0.18282 0.895415,0.17504 0.267791,0.31825 0.270658,0.3379 0.101161,0.69335 -0.240539,0.50441 -0.05151,0.97033 0.462502,1.13998 0.349528,0.11534 0.366363,0.14491 0.366363,0.64346 0,0.49856 -0.01683,0.52813 -0.366363,0.64348 -0.514012,0.16965 -0.703041,0.63556 -0.462502,1.13998 0.1695,0.35544 0.166633,0.3751 -0.101161,0.69335 -0.301106,0.35784 -0.496486,0.39603 -0.895415,0.17503 -0.386662,-0.2142 -0.879233,0.0194 -1.037656,0.49208 -0.111691,0.33325 -0.160535,0.36408 -0.624844,0.3944 -0.457849,0.0299 -0.513463,0.007 -0.611128,-0.24971 z m 1.171225,-2.25585 c 1.002696,-0.51852 0.567281,-2.10655 -0.577583,-2.10655 -0.657782,0 -1.13701,0.48726 -1.1287,1.1476 0.01093,0.86852 0.907142,1.3722 1.706283,0.95895 z m -7.1814361,-0.54336 c -0.1721367,-0.26579 -0.3479368,-0.39103 -0.6206666,-0.44219 -0.3724536,-0.0699 -0.4375608,-0.0439 -1.0960831,0.43781 -0.1041156,0.0761 -0.2881963,0.0325 -0.6312545,-0.1494 L 6.923361,285.2837 6.980145,284.73202 c 0.075019,-0.72885 -0.1819572,-1.05744 -0.8922687,-1.14095 -0.4839966,-0.0569 -0.4951477,-0.0671 -0.6482232,-0.59338 l -0.1557547,-0.53549 0.3840804,-0.30812 c 0.5369269,-0.43073 0.6204577,-0.92183 0.2413386,-1.41888 -0.345631,-0.45315 -0.3465907,-0.50125 -0.02031,-1.01812 0.2529196,-0.40064 0.2785787,-0.41285 0.7819791,-0.37205 0.6982215,0.0566 1.028612,-0.21447 1.1097393,-0.91042 0.057439,-0.49276 0.06214,-0.49775 0.5971907,-0.63561 0.4840285,-0.12471 0.5535577,-0.11988 0.6784605,0.0472 0.5797818,0.77555 0.979788,0.87201 1.613072,0.38899 0.325977,-0.24864 0.404856,-0.26711 0.657336,-0.15398 0.695468,0.31165 0.752221,0.38808 0.659922,0.88867 -0.07433,0.40316 -0.05043,0.51104 0.180616,0.81519 0.220617,0.29042 0.338699,0.35055 0.688445,0.35055 0.46014,0 0.543,0.0887 0.733953,0.78555 0.109702,0.40035 0.103829,0.41332 -0.311919,0.68845 -0.373734,0.24732 -0.423729,0.33047 -0.423729,0.70471 0,0.29097 0.08829,0.54006 0.281008,0.79272 l 0.281005,0.36841 -0.284097,0.48477 c -0.281816,0.48089 -0.287894,0.48426 -0.757756,0.41986 -0.602412,-0.0826 -1.137216,0.24475 -1.13952,0.69742 -0.003,0.58567 -0.102789,0.72894 -0.600537,0.86206 -0.6354652,0.16997 -0.603962,0.17876 -0.8785323,-0.24518 z m 0.6021931,-2.70404 c 1.303088,-1.09648 -0.128105,-3.09119 -1.5819389,-2.20482 -0.7529996,0.4591 -0.8404713,1.46385 -0.1845421,2.11979 0.3106317,0.31062 0.4301839,0.35821 0.9000207,0.35821 0.4224319,0 0.6133363,-0.0602 0.8664603,-0.27318 z"
       id="path890"
       inkscape:connector-curvature="0" />
  </g>
</svg>
