<?xml version="1.0" encoding="UTF-8" standalone="no"?>
<!-- Created with Inkscape (http://www.inkscape.org/) -->

<svg
   xmlns:dc="http://purl.org/dc/elements/1.1/"
   xmlns:cc="http://creativecommons.org/ns#"
   xmlns:rdf="http://www.w3.org/1999/02/22-rdf-syntax-ns#"
   xmlns:svg="http://www.w3.org/2000/svg"
   xmlns="http://www.w3.org/2000/svg"
   xmlns:sodipodi="http://sodipodi.sourceforge.net/DTD/sodipodi-0.dtd"
   xmlns:inkscape="http://www.inkscape.org/namespaces/inkscape"
   width="80"
   height="80"
   viewBox="0 0 21.166666 21.166667"
   version="1.1"
   id="svg8"
   inkscape:version="0.92.5 (2060ec1f9f, 2020-04-08)"
   sodipodi:docname="icon.svg"
   inkscape:export-filename="/home/antoniofregoso/Escritorio/odoo/landingpages.png"
   inkscape:export-xdpi="94.567993"
   inkscape:export-ydpi="94.567993">
  <defs
     id="defs2" />
  <sodipodi:namedview
     id="base"
     pagecolor="#ffffff"
     bordercolor="#666666"
     borderopacity="1.0"
     inkscape:pageopacity="0.0"
     inkscape:pageshadow="2"
     inkscape:zoom="4.1125"
     inkscape:cx="40"
     inkscape:cy="40"
     inkscape:document-units="mm"
     inkscape:current-layer="layer1"
     showgrid="false"
     units="px"
     inkscape:window-width="1600"
     inkscape:window-height="836"
     inkscape:window-x="0"
     inkscape:window-y="27"
     inkscape:window-maximized="1" />
  <metadata
     id="metadata5">
    <rdf:RDF>
      <cc:Work
         rdf:about="">
        <dc:format>image/svg+xml</dc:format>
        <dc:type
           rdf:resource="http://purl.org/dc/dcmitype/StillImage" />
        <dc:title />
      </cc:Work>
    </rdf:RDF>
  </metadata>
  <g
     inkscape:label="Capa 1"
     inkscape:groupmode="layer"
     id="layer1"
     transform="translate(0,-275.83332)">
    <rect
       style="opacity:1;fill:#668000;fill-opacity:1;stroke:none;stroke-width:0.48100001;stroke-miterlimit:4;stroke-dasharray:none;stroke-opacity:1"
       id="rect812"
       width="21.326054"
       height="21.262299"
       x="-0.03187751"
       y="275.80145" />
    <path
       style="fill:#000000;stroke:none;stroke-width:0.26458332px;stroke-linecap:butt;stroke-linejoin:miter;stroke-opacity:1;fill-opacity:0.29508197"
       d="m -0.19300912,284.77608 4.11752792,-4.56789 0.386018,1.02939 1.6516739,3.33392 -0.075123,0.0713 1.8340551,3.41302 v 0 l 1.0788724,2.21013 -0.073295,2.397 4.6812468,-0.025 -1.505738,4.36207 -11.93410681,0.0638 z"
       id="path1028"
       inkscape:connector-curvature="0" />
    <g
       id="g1010"
       transform="matrix(0.13937765,0,0,0.13937765,-10.524264,245.21113)"
       style="fill:#ffffff;stroke-width:7.17475128">
      <path
         style="fill:#ffffff;stroke-width:7.17475128"
         d="m 147.32026,343.88755 c -4.62571,-0.63098 -7.99545,-1.75029 -8.95966,-2.97609 -0.49192,-0.62538 -0.51945,-1.11439 -0.51945,-9.22644 v -8.56606 l -2.39983,-4.79405 c -1.60059,-3.19744 -2.31168,-4.88221 -2.13514,-5.05875 0.17655,-0.17654 1.08594,-0.0321 2.73056,0.43383 6.08366,1.72339 11.33835,2.37787 19.00232,2.36679 7.81607,-0.0113 14.58323,-0.88494 19.22499,-2.48194 1.63903,-0.56391 2.73543,-0.66295 2.73543,-0.24711 0,0.14705 -1.07156,2.40799 -2.38125,5.0243 l -2.38125,4.75693 v 8.68791 c 0,8.67096 -10e-4,8.68901 -0.59609,9.24791 -1.44435,1.3569 -4.88811,2.39031 -9.86567,2.96051 -3.23015,0.37004 -11.33054,0.29845 -14.45496,-0.12774 z m 0.31047,-31.651 c -8.10025,-0.61248 -15.27699,-2.49963 -17.10504,-4.49781 -0.91177,-0.99663 -9.68898,-18.78019 -9.40785,-19.06131 0.15203,-0.15203 1.28655,0.11577 2.96392,0.69962 16.89828,5.8819 45.01632,5.8819 61.91461,0 1.67736,-0.58385 2.81189,-0.85165 2.96392,-0.69962 0.28113,0.28112 -8.49608,18.06468 -9.40785,19.06131 -3.08828,3.37571 -18.34033,5.52475 -31.92171,4.49781 z m -1.85208,-22.34522 c -13.66014,-1.14227 -22.13759,-3.06602 -26.61672,-6.03999 l -1.41456,-0.93921 -5.98025,-11.94145 c -4.16026,-8.30726 -5.89607,-12.02563 -5.70364,-12.21806 0.19243,-0.19243 1.1446,0.13073 3.1287,1.06186 7.75382,3.63884 19.17275,6.10956 33.54376,7.25787 2.18281,0.17441 7.71922,0.31711 12.30312,0.31711 4.58391,0 10.12032,-0.1427 12.30313,-0.31711 14.371,-1.14831 25.78994,-3.61903 33.54375,-7.25787 1.9841,-0.93113 2.93628,-1.25429 3.12871,-1.06186 0.19243,0.19243 -1.54526,3.91456 -5.70982,12.2304 l -5.98643,11.95378 -1.58672,1.02554 c -3.78967,2.44939 -10.56198,4.21724 -20.87595,5.4495 -3.37614,0.40336 -20.83059,0.75096 -24.07708,0.47949 z m -3.175,-26.32577 c -18.19264,-1.18981 -32.22634,-4.71733 -36.82358,-9.256 -1.62642,-1.60568 -2.01453,-2.61642 -1.6831,-4.38313 0.27598,-1.47107 2.65732,-3.67482 5.43376,-5.02853 9.06421,-4.41943 25.71034,-6.96832 45.50833,-6.96832 23.79701,0 43.44587,3.80836 49.259,9.54742 2.46762,2.43617 2.46762,4.39639 0,6.83256 -4.66471,4.60528 -18.70829,8.09095 -37.35275,9.27109 -4.98708,0.31567 -19.42102,0.30672 -24.34166,-0.0151 z"
         id="path1024"
         inkscape:connector-curvature="0" />
      <path
         style="fill:#ffffff;stroke-width:7.17475128"
         d="m 150.26803,344.02175 c -5.30687,-0.405 -9.78765,-1.52787 -11.29475,-2.83044 l -0.85225,-0.73657 -0.17691,-8.99584 -0.17691,-8.99583 -2.21199,-4.42883 c -1.2166,-2.43586 -2.21199,-4.5032 -2.21199,-4.59409 0,-0.22924 0.96961,-0.0372 4.49792,0.8907 5.56863,1.46454 8.54116,1.77432 17.06562,1.77848 5.04741,0.002 8.48773,-0.117 10.05417,-0.34913 3.15917,-0.46816 7.95244,-1.5286 9.83141,-2.17506 0.87333,-0.30047 1.61197,-0.42202 1.74657,-0.28742 0.13461,0.13461 -0.72574,2.1487 -2.03435,4.7625 l -2.26759,4.52926 v 8.69851 c 0,8.53444 -0.0109,8.71232 -0.57618,9.431 -1.24757,1.58603 -5.75682,2.81284 -12.12382,3.29848 -3.88784,0.29654 -5.43002,0.29725 -9.26895,0.004 z m -4.09251,-32.29151 c -6.10234,-0.62194 -12.42242,-2.14801 -14.44649,-3.48831 -0.75806,-0.50197 -1.62565,-2.03755 -5.52265,-9.77465 -2.54282,-5.04852 -4.56438,-9.23804 -4.49236,-9.31007 0.072,-0.072 1.12349,0.22029 2.33659,0.64957 4.99817,1.76871 12.57872,3.26069 20.27283,3.99004 1.89177,0.17933 6.7138,0.32605 10.71562,0.32605 4.00183,0 8.82386,-0.14672 10.71563,-0.32605 7.6941,-0.72935 15.27466,-2.22133 20.27282,-3.99004 1.21311,-0.42928 2.26344,-0.72272 2.33408,-0.65209 0.0706,0.0706 -1.8914,4.1842 -4.36007,9.14124 -3.3513,6.72934 -4.69354,9.17108 -5.2978,9.63748 -1.7099,1.31979 -6.26839,2.63098 -12.02299,3.45826 -3.32252,0.47764 -16.93531,0.70241 -20.50521,0.33857 z m 0.99765,-21.96739 c -12.78142,-0.66485 -23.92416,-3.15154 -28.39863,-6.33764 -0.62855,-0.44757 -2.09907,-3.16298 -6.75845,-12.47995 -3.27531,-6.54936 -5.89438,-11.96865 -5.82016,-12.04287 0.0742,-0.0742 1.48,0.46095 3.12394,1.18927 11.11584,4.92468 26.66396,7.46252 45.71919,7.46252 19.05524,0 34.60336,-2.53784 45.7192,-7.46252 1.64394,-0.72832 3.04971,-1.2635 3.12393,-1.18927 0.0742,0.0742 -2.54484,5.49351 -5.82015,12.04287 -4.65939,9.31697 -6.12991,12.03238 -6.75846,12.47995 -6.4884,4.62015 -25.27665,7.31836 -44.13041,6.33764 z m 1.64818,-26.06585 c -24.34721,-0.91943 -42.15763,-5.57381 -44.46687,-11.62047 -0.42613,-1.1158 -0.42613,-1.2507 0,-2.3665 2.06642,-5.41084 16.28368,-9.67683 37.58771,-11.27846 5.45484,-0.41009 20.73891,-0.41009 26.19375,0 21.30403,1.60163 35.52129,5.86762 37.58771,11.27846 0.42613,1.1158 0.42613,1.2507 0,2.3665 -2.05518,5.3814 -16.72292,9.79741 -37.32313,11.23685 -4.15403,0.29027 -15.93747,0.52114 -19.57917,0.38362 z"
         id="path1022"
         inkscape:connector-curvature="0" />
      <path
         style="fill:#ffffff;stroke-width:7.17475128"
         d="m 149.15345,343.73198 c -5.50871,-0.53119 -9.99663,-1.95952 -10.71309,-3.40954 -0.23837,-0.48243 -0.32789,-2.93588 -0.33073,-9.06491 l -0.004,-8.40346 -2.24896,-4.49204 c -1.23692,-2.47062 -2.24896,-4.56641 -2.24896,-4.6573 0,-0.22946 1.03184,-0.0249 4.02106,0.79703 6.04791,1.66304 16.50637,2.43119 24.02478,1.76456 4.21658,-0.37386 9.63083,-1.34222 12.50335,-2.23627 1.12878,-0.35132 2.11455,-0.53806 2.19062,-0.41499 0.0761,0.12307 -0.87725,2.2522 -2.11847,4.73139 l -2.25675,4.50762 v 8.56621 c 0,8.1122 -0.0275,8.60122 -0.51946,9.2266 -1.93133,2.45529 -12.97963,3.98381 -22.29949,3.0851 z m -2.97793,-32.00174 c -6.10234,-0.62194 -12.42242,-2.14801 -14.44649,-3.48831 -0.75806,-0.50197 -1.62565,-2.03755 -5.52265,-9.77465 -2.54282,-5.04852 -4.56438,-9.23804 -4.49236,-9.31007 0.072,-0.072 1.12349,0.22029 2.33659,0.64957 4.99817,1.76871 12.57872,3.26069 20.27283,3.99004 1.89177,0.17933 6.7138,0.32605 10.71562,0.32605 4.00183,0 8.82386,-0.14672 10.71563,-0.32605 7.6941,-0.72935 15.27466,-2.22133 20.27282,-3.99004 1.21311,-0.42928 2.26344,-0.72272 2.33408,-0.65209 0.0706,0.0706 -1.8914,4.1842 -4.36007,9.14124 -3.3513,6.72934 -4.69354,9.17108 -5.2978,9.63748 -1.7099,1.31979 -6.26839,2.63098 -12.02299,3.45826 -3.32252,0.47764 -16.93531,0.70241 -20.50521,0.33857 z m -0.26458,-22.23652 c -12.07225,-0.75994 -22.43658,-3.10761 -26.71521,-6.05138 -1.14542,-0.78808 -1.44743,-1.32231 -6.88669,-12.18187 -4.98936,-9.96135 -6.00235,-12.16511 -5.59186,-12.16511 0.0533,0 1.23267,0.53804 2.62087,1.19564 6.72827,3.18721 17.41604,5.62457 30.35518,6.92255 6.58018,0.66009 24.11148,0.66009 30.69167,0 12.93914,-1.29798 23.62691,-3.73534 30.35518,-6.92255 1.3882,-0.6576 2.56759,-1.19564 2.62086,-1.19564 0.41049,0 -0.60249,2.20376 -5.59186,12.16511 -5.43925,10.85956 -5.74126,11.39379 -6.88669,12.18187 -6.61187,4.54908 -26.44379,7.21767 -44.97145,6.05138 z m -1.32292,-26.19844 c -14.79323,-0.76653 -27.53527,-3.23132 -34.68884,-6.71013 -2.30498,-1.12092 -3.19957,-1.71917 -4.14768,-2.77369 -1.97092,-2.19214 -1.97092,-3.64422 0,-5.83635 2.3126,-2.57217 8.92872,-5.20543 17.26092,-6.86995 19.30492,-3.85654 44.74837,-3.85654 64.05328,0 8.33221,1.66452 14.94833,4.29778 17.26093,6.86995 1.97092,2.19213 1.97092,3.64421 0,5.83635 -2.89856,3.2239 -12.17486,6.34633 -23.88757,8.04063 -10.53974,1.52463 -23.8999,2.06245 -35.85104,1.44319 z"
         id="path1020"
         inkscape:connector-curvature="0" />
      <path
         style="fill:#ffffff;stroke-width:7.17475128"
         d="m 149.15345,343.73198 c -5.50871,-0.53119 -9.99663,-1.95952 -10.71309,-3.40954 -0.23837,-0.48243 -0.32789,-2.93588 -0.33073,-9.06491 l -0.004,-8.40346 -2.24896,-4.49204 c -1.23692,-2.47062 -2.24896,-4.56641 -2.24896,-4.6573 0,-0.22946 1.03184,-0.0249 4.02106,0.79703 6.04791,1.66304 16.50637,2.43119 24.02478,1.76456 4.21658,-0.37386 9.63083,-1.34222 12.50335,-2.23627 1.12878,-0.35132 2.11455,-0.53806 2.19062,-0.41499 0.0761,0.12307 -0.87725,2.2522 -2.11847,4.73139 l -2.25675,4.50762 v 8.56621 c 0,8.1122 -0.0275,8.60122 -0.51946,9.2266 -1.93133,2.45529 -12.97963,3.98381 -22.29949,3.0851 z m -2.05189,-32.28418 c -6.09479,-0.49584 -12.11903,-1.85171 -14.91067,-3.35592 l -1.28463,-0.69219 -4.47081,-8.93862 c -2.45895,-4.91625 -4.4318,-8.93862 -4.38411,-8.93862 0.0477,0 0.97076,0.3029 2.05128,0.67311 4.74719,1.62651 10.75524,2.86462 18.10415,3.73082 5.62373,0.66285 20.04085,0.66285 25.66458,0 7.34891,-0.8662 13.35696,-2.10431 18.10416,-3.73082 1.08051,-0.37021 2.00517,-0.67311 2.05478,-0.67311 0.0496,0 -1.92775,4.02483 -4.39414,8.94407 l -4.48435,8.94408 -1.2746,0.68674 c -5.24984,2.82853 -18.91056,4.31574 -30.77564,3.35046 z m -1.19062,-21.95408 c -12.07225,-0.75994 -22.43658,-3.10761 -26.71521,-6.05138 -1.14542,-0.78808 -1.44743,-1.32231 -6.88669,-12.18187 -4.98936,-9.96135 -6.00235,-12.16511 -5.59186,-12.16511 0.0533,0 1.23267,0.53804 2.62087,1.19564 6.72827,3.18721 17.41604,5.62457 30.35518,6.92255 6.58018,0.66009 24.11148,0.66009 30.69167,0 12.93914,-1.29798 23.62691,-3.73534 30.35518,-6.92255 1.3882,-0.6576 2.56759,-1.19564 2.62086,-1.19564 0.41049,0 -0.60249,2.20376 -5.59186,12.16511 -5.43925,10.85956 -5.74126,11.39379 -6.88669,12.18187 -6.61187,4.54908 -26.44379,7.21767 -44.97145,6.05138 z m -1.32292,-26.19844 c -14.79323,-0.76653 -27.53527,-3.23132 -34.68884,-6.71013 -2.30498,-1.12092 -3.19957,-1.71917 -4.14768,-2.77369 -1.97092,-2.19214 -1.97092,-3.64422 0,-5.83635 2.3126,-2.57217 8.92872,-5.20543 17.26092,-6.86995 19.30492,-3.85654 44.74837,-3.85654 64.05328,0 8.33221,1.66452 14.94833,4.29778 17.26093,6.86995 1.97092,2.19213 1.97092,3.64421 0,5.83635 -2.89856,3.2239 -12.17486,6.34633 -23.88757,8.04063 -10.53974,1.52463 -23.8999,2.06245 -35.85104,1.44319 z"
         id="path1018"
         inkscape:connector-curvature="0" />
      <path
         style="fill:#ffffff;stroke-width:7.17475128"
         d="m 149.15345,343.73198 c -5.50871,-0.53119 -9.99663,-1.95952 -10.71309,-3.40954 -0.23837,-0.48243 -0.32789,-2.93588 -0.33073,-9.06491 l -0.004,-8.40346 -2.24896,-4.49204 c -1.23692,-2.47062 -2.24896,-4.56641 -2.24896,-4.6573 0,-0.22946 1.03184,-0.0249 4.02106,0.79703 6.04791,1.66304 16.50637,2.43119 24.02478,1.76456 4.21658,-0.37386 9.63083,-1.34222 12.50335,-2.23627 1.12878,-0.35132 2.11455,-0.53806 2.19062,-0.41499 0.0761,0.12307 -0.87725,2.2522 -2.11847,4.73139 l -2.25675,4.50762 v 8.56621 c 0,8.1122 -0.0275,8.60122 -0.51946,9.2266 -1.93133,2.45529 -12.97963,3.98381 -22.29949,3.0851 z m -3.24251,-54.23826 c -12.07225,-0.75994 -22.43658,-3.10761 -26.71521,-6.05138 -1.14542,-0.78808 -1.44743,-1.32231 -6.88669,-12.18187 -4.98936,-9.96135 -6.00235,-12.16511 -5.59186,-12.16511 0.0533,0 1.23267,0.53804 2.62087,1.19564 6.72827,3.18721 17.41604,5.62457 30.35518,6.92255 6.58018,0.66009 24.11148,0.66009 30.69167,0 12.93914,-1.29798 23.62691,-3.73534 30.35518,-6.92255 1.3882,-0.6576 2.56759,-1.19564 2.62086,-1.19564 0.41049,0 -0.60249,2.20376 -5.59186,12.16511 -5.43925,10.85956 -5.74126,11.39379 -6.88669,12.18187 -6.61187,4.54908 -26.44379,7.21767 -44.97145,6.05138 z m -1.32292,-26.19844 c -14.79323,-0.76653 -27.53527,-3.23132 -34.68884,-6.71013 -2.30498,-1.12092 -3.19957,-1.71917 -4.14768,-2.77369 -1.97092,-2.19214 -1.97092,-3.64422 0,-5.83635 2.3126,-2.57217 8.92872,-5.20543 17.26092,-6.86995 19.30492,-3.85654 44.74837,-3.85654 64.05328,0 8.33221,1.66452 14.94833,4.29778 17.26093,6.86995 1.97092,2.19213 1.97092,3.64421 0,5.83635 -2.89856,3.2239 -12.17486,6.34633 -23.88757,8.04063 -10.53974,1.52463 -23.8999,2.06245 -35.85104,1.44319 z"
         id="path1016"
         inkscape:connector-curvature="0" />
      <path
         style="fill:#ffffff;stroke-width:7.17475128"
         d="m 149.48281,343.59951 c -5.64207,-0.67456 -9.08511,-1.59551 -10.33704,-2.76499 l -0.77546,-0.72438 v -8.59893 -8.59892 l -2.24359,-4.52409 c -1.55122,-3.12795 -2.124,-4.52409 -1.85608,-4.52409 0.21313,0 1.37865,0.28722 2.59004,0.63827 7.39475,2.14292 18.95285,2.79636 28.20901,1.59481 3.06458,-0.39781 7.97092,-1.4565 9.92054,-2.14066 0.5684,-0.19946 1.07938,-0.31673 1.13551,-0.2606 0.0561,0.0561 -0.91495,2.15277 -2.15794,4.6592 l -2.25999,4.55716 v 8.68156 8.68155 l -0.80586,0.67809 c -0.93054,0.783 -3.35755,1.58709 -6.59026,2.18342 -2.17955,0.40205 -12.61296,0.72753 -14.82888,0.4626 z m -4.89479,-54.36828 c -11.66824,-0.86853 -21.54276,-3.21798 -25.56632,-6.08302 -0.60436,-0.43034 -2.09648,-3.1803 -6.46132,-11.90812 -3.12151,-6.24172 -5.67548,-11.46048 -5.67548,-11.59726 0,-0.13678 0.99033,0.20884 2.20074,0.76805 7.70745,3.56085 18.80853,5.97317 33.12113,7.19737 4.78231,0.40905 20.88227,0.40905 25.66458,0 14.3126,-1.2242 25.41369,-3.63652 33.12113,-7.19737 1.21041,-0.55921 2.20075,-0.90483 2.20075,-0.76805 0,0.13678 -2.55397,5.35554 -5.67548,11.59726 -4.36484,8.72782 -5.85696,11.47778 -6.46132,11.90812 -4.12586,2.93787 -13.8324,5.20756 -26.09549,6.10193 -4.26187,0.31083 -16.09055,0.29984 -20.37292,-0.0189 z m -1.26642,-26.18444 c -20.07084,-1.20621 -35.82438,-5.54455 -38.42995,-10.58316 -2.38887,-4.61957 6.14851,-9.24082 21.96929,-11.8919 14.00101,-2.34614 31.67828,-2.77734 47.75729,-1.16496 15.98422,1.60288 28.34237,5.6118 30.56824,9.91617 2.38887,4.61956 -6.14851,9.24082 -21.96928,11.89189 -5.14269,0.86176 -10.76977,1.47105 -17.06563,1.84786 -4.96096,0.29691 -17.77346,0.28799 -22.82996,-0.0159 z"
         id="path1014"
         inkscape:connector-curvature="0" />
      <path
         style="fill:#ffffff;stroke-width:7.17475128"
         d="m 146.96927,343.08339 c -3.09776,-0.42094 -6.63427,-1.46205 -7.63181,-2.24671 l -0.70256,-0.55264 0.006,-8.51361 0.006,-8.51361 -2.17268,-4.42563 c -1.19497,-2.43409 -2.11291,-4.48539 -2.03986,-4.55844 0.073,-0.073 1.50828,0.21456 3.18941,0.63914 10.42062,2.63176 24.88747,2.62821 34.74596,-0.009 3.1063,-0.8308 3.30729,-0.86437 3.30729,-0.55235 0,0.15622 -0.9525,2.20663 -2.11666,4.55647 l -2.11667,4.27243 v 8.55205 8.55206 l -0.69663,0.54797 c -1.02648,0.80743 -4.38645,1.78504 -7.74505,2.25348 -3.65373,0.50961 -12.27486,0.50848 -16.03228,-0.002 z m -1.45521,-53.9819 c -0.50932,-0.0556 -2.41432,-0.23217 -4.23333,-0.39247 -9.25187,-0.81532 -17.64998,-2.92761 -21.6175,-5.43723 l -1.37687,-0.87092 -5.58549,-11.15063 c -3.07203,-6.13284 -5.53835,-11.19778 -5.48071,-11.25541 0.0576,-0.0576 1.17524,0.35949 2.48357,0.92694 8.09748,3.51207 19.54538,5.89215 33.29679,6.92257 5.11199,0.38305 18.9651,0.38305 24.07708,0 13.75142,-1.03042 25.19932,-3.4105 33.2968,-6.92257 1.30833,-0.56745 2.42593,-0.98458 2.48357,-0.92694 0.0576,0.0576 -2.40869,5.12257 -5.48071,11.25541 l -5.58549,11.15063 -1.37688,0.87092 c -3.78512,2.39425 -10.59487,4.19026 -20.29458,5.35253 -2.55629,0.30631 -6.43054,0.44935 -13.62604,0.50309 -5.52979,0.0413 -10.47088,0.0296 -10.98021,-0.0259 z m -1.85208,-26.20615 c -23.37978,-1.61717 -38.89375,-6.40455 -38.89375,-12.00206 0,-5.0673 12.55904,-9.45664 33.07292,-11.55886 6.69751,-0.68635 27.69832,-0.68635 34.39583,0 20.51387,2.10222 33.07291,6.49156 33.07291,11.55886 0,5.03549 -12.53626,9.44312 -32.80833,11.53509 -3.89393,0.40184 -24.87078,0.74149 -28.83958,0.46697 z"
         id="path1012"
         inkscape:connector-curvature="0" />
    </g>
  </g>
</svg>
